  <mxfile host="app.diagrams.net" modified="2023-09-13T08:19:34.656Z" agent="Mozilla/5.0 (Windows NT 10.0; Win64; x64) AppleWebKit/537.36 (KHTML, like Gecko) Chrome/116.0.0.0 Safari/537.36 Edg/116.0.1938.76" etag="TTQVVF-gOels8__C1PDN" version="21.7.2" type="github">
    <diagram name="Page-1" id="tSNvVeP32w1JNduM2oPn">
      <mxGraphModel dx="1424" dy="783" grid="0" gridSize="9" guides="1" tooltips="1" connect="1" arrows="1" fold="1" page="1" pageScale="1" pageWidth="1654" pageHeight="1169" math="0" shadow="0">
        <root>
          <mxCell id="0" />
          <mxCell id="1" parent="0" />
          <mxCell id="wPhsgIW06foIdjOwm0GP-9" style="edgeStyle=orthogonalEdgeStyle;rounded=0;orthogonalLoop=1;jettySize=auto;html=1;" parent="1" source="wPhsgIW06foIdjOwm0GP-5" target="wPhsgIW06foIdjOwm0GP-8" edge="1">
            <mxGeometry relative="1" as="geometry" />
          </mxCell>
          <mxCell id="MV5Gk9YvVKDqXP2EczdR-105" style="edgeStyle=orthogonalEdgeStyle;rounded=0;orthogonalLoop=1;jettySize=auto;html=1;exitX=1;exitY=0.5;exitDx=0;exitDy=0;entryX=0.5;entryY=0;entryDx=0;entryDy=0;" edge="1" parent="1" source="wPhsgIW06foIdjOwm0GP-5" target="MV5Gk9YvVKDqXP2EczdR-104">
            <mxGeometry relative="1" as="geometry" />
          </mxCell>
          <mxCell id="wPhsgIW06foIdjOwm0GP-5" value="Документ - презентация" style="rounded=1;arcSize=10;whiteSpace=wrap;html=1;align=center;" parent="1" vertex="1">
            <mxGeometry x="734" y="204" width="120" height="40" as="geometry" />
          </mxCell>
          <mxCell id="wPhsgIW06foIdjOwm0GP-18" value="" style="edgeStyle=orthogonalEdgeStyle;rounded=0;orthogonalLoop=1;jettySize=auto;html=1;" parent="1" source="wPhsgIW06foIdjOwm0GP-8" target="wPhsgIW06foIdjOwm0GP-17" edge="1">
            <mxGeometry relative="1" as="geometry" />
          </mxCell>
          <mxCell id="MV5Gk9YvVKDqXP2EczdR-78" style="edgeStyle=orthogonalEdgeStyle;rounded=0;orthogonalLoop=1;jettySize=auto;html=1;exitX=1;exitY=0.5;exitDx=0;exitDy=0;entryX=0.5;entryY=0;entryDx=0;entryDy=0;" edge="1" parent="1" source="wPhsgIW06foIdjOwm0GP-8" target="MV5Gk9YvVKDqXP2EczdR-76">
            <mxGeometry relative="1" as="geometry" />
          </mxCell>
          <mxCell id="MV5Gk9YvVKDqXP2EczdR-79" style="edgeStyle=orthogonalEdgeStyle;rounded=0;orthogonalLoop=1;jettySize=auto;html=1;exitX=1;exitY=0.5;exitDx=0;exitDy=0;entryX=0.5;entryY=0;entryDx=0;entryDy=0;" edge="1" parent="1" source="wPhsgIW06foIdjOwm0GP-8" target="MV5Gk9YvVKDqXP2EczdR-77">
            <mxGeometry relative="1" as="geometry" />
          </mxCell>
          <mxCell id="wPhsgIW06foIdjOwm0GP-8" value="Слайд" style="rounded=1;arcSize=10;whiteSpace=wrap;html=1;align=center;" parent="1" vertex="1">
            <mxGeometry x="744" y="316" width="100" height="40" as="geometry" />
          </mxCell>
          <mxCell id="wPhsgIW06foIdjOwm0GP-20" style="edgeStyle=orthogonalEdgeStyle;rounded=0;orthogonalLoop=1;jettySize=auto;html=1;exitX=0.5;exitY=1;exitDx=0;exitDy=0;entryX=0.5;entryY=0;entryDx=0;entryDy=0;" parent="1" source="wPhsgIW06foIdjOwm0GP-17" target="wPhsgIW06foIdjOwm0GP-19" edge="1">
            <mxGeometry relative="1" as="geometry" />
          </mxCell>
          <mxCell id="wPhsgIW06foIdjOwm0GP-25" style="edgeStyle=orthogonalEdgeStyle;rounded=0;orthogonalLoop=1;jettySize=auto;html=1;exitX=0.5;exitY=1;exitDx=0;exitDy=0;entryX=0.5;entryY=0;entryDx=0;entryDy=0;" parent="1" source="wPhsgIW06foIdjOwm0GP-17" target="wPhsgIW06foIdjOwm0GP-22" edge="1">
            <mxGeometry relative="1" as="geometry" />
          </mxCell>
          <mxCell id="wPhsgIW06foIdjOwm0GP-27" style="edgeStyle=orthogonalEdgeStyle;rounded=0;orthogonalLoop=1;jettySize=auto;html=1;exitX=0.5;exitY=1;exitDx=0;exitDy=0;entryX=0.5;entryY=0;entryDx=0;entryDy=0;" parent="1" source="wPhsgIW06foIdjOwm0GP-17" target="wPhsgIW06foIdjOwm0GP-23" edge="1">
            <mxGeometry relative="1" as="geometry" />
          </mxCell>
          <mxCell id="wPhsgIW06foIdjOwm0GP-17" value="Объекты" style="whiteSpace=wrap;html=1;align=center;" parent="1" vertex="1">
            <mxGeometry x="744" y="396" width="100" height="40" as="geometry" />
          </mxCell>
          <mxCell id="MV5Gk9YvVKDqXP2EczdR-32" style="edgeStyle=orthogonalEdgeStyle;rounded=0;orthogonalLoop=1;jettySize=auto;html=1;exitX=0.75;exitY=1;exitDx=0;exitDy=0;entryX=1;entryY=0.5;entryDx=0;entryDy=0;" edge="1" parent="1" source="wPhsgIW06foIdjOwm0GP-19" target="MV5Gk9YvVKDqXP2EczdR-27">
            <mxGeometry relative="1" as="geometry" />
          </mxCell>
          <mxCell id="MV5Gk9YvVKDqXP2EczdR-33" style="edgeStyle=orthogonalEdgeStyle;rounded=0;orthogonalLoop=1;jettySize=auto;html=1;exitX=0.75;exitY=1;exitDx=0;exitDy=0;entryX=1;entryY=0.5;entryDx=0;entryDy=0;" edge="1" parent="1" source="wPhsgIW06foIdjOwm0GP-19" target="MV5Gk9YvVKDqXP2EczdR-28">
            <mxGeometry relative="1" as="geometry" />
          </mxCell>
          <mxCell id="MV5Gk9YvVKDqXP2EczdR-34" style="edgeStyle=orthogonalEdgeStyle;rounded=0;orthogonalLoop=1;jettySize=auto;html=1;exitX=0.75;exitY=1;exitDx=0;exitDy=0;entryX=1;entryY=0.5;entryDx=0;entryDy=0;" edge="1" parent="1" source="wPhsgIW06foIdjOwm0GP-19" target="MV5Gk9YvVKDqXP2EczdR-29">
            <mxGeometry relative="1" as="geometry" />
          </mxCell>
          <mxCell id="MV5Gk9YvVKDqXP2EczdR-35" style="edgeStyle=orthogonalEdgeStyle;rounded=0;orthogonalLoop=1;jettySize=auto;html=1;exitX=0.75;exitY=1;exitDx=0;exitDy=0;entryX=1;entryY=0.5;entryDx=0;entryDy=0;" edge="1" parent="1" source="wPhsgIW06foIdjOwm0GP-19" target="MV5Gk9YvVKDqXP2EczdR-30">
            <mxGeometry relative="1" as="geometry" />
          </mxCell>
          <mxCell id="MV5Gk9YvVKDqXP2EczdR-37" style="edgeStyle=orthogonalEdgeStyle;rounded=0;orthogonalLoop=1;jettySize=auto;html=1;exitX=0.75;exitY=1;exitDx=0;exitDy=0;entryX=1;entryY=0.5;entryDx=0;entryDy=0;" edge="1" parent="1" source="wPhsgIW06foIdjOwm0GP-19" target="MV5Gk9YvVKDqXP2EczdR-36">
            <mxGeometry relative="1" as="geometry" />
          </mxCell>
          <mxCell id="wPhsgIW06foIdjOwm0GP-19" value="Текстовый" style="rounded=1;arcSize=10;whiteSpace=wrap;html=1;align=center;" parent="1" vertex="1">
            <mxGeometry x="624" y="566" width="100" height="40" as="geometry" />
          </mxCell>
          <mxCell id="MV5Gk9YvVKDqXP2EczdR-41" style="edgeStyle=orthogonalEdgeStyle;rounded=0;orthogonalLoop=1;jettySize=auto;html=1;exitX=0;exitY=1;exitDx=0;exitDy=0;entryX=0;entryY=0.5;entryDx=0;entryDy=0;" edge="1" parent="1" source="wPhsgIW06foIdjOwm0GP-22" target="MV5Gk9YvVKDqXP2EczdR-38">
            <mxGeometry relative="1" as="geometry" />
          </mxCell>
          <mxCell id="MV5Gk9YvVKDqXP2EczdR-42" style="edgeStyle=orthogonalEdgeStyle;rounded=0;orthogonalLoop=1;jettySize=auto;html=1;exitX=0;exitY=1;exitDx=0;exitDy=0;entryX=0;entryY=0.5;entryDx=0;entryDy=0;" edge="1" parent="1" source="wPhsgIW06foIdjOwm0GP-22" target="MV5Gk9YvVKDqXP2EczdR-39">
            <mxGeometry relative="1" as="geometry" />
          </mxCell>
          <mxCell id="wPhsgIW06foIdjOwm0GP-22" value="Картинка" style="rounded=1;arcSize=10;whiteSpace=wrap;html=1;align=center;" parent="1" vertex="1">
            <mxGeometry x="744" y="566" width="100" height="40" as="geometry" />
          </mxCell>
          <mxCell id="MV5Gk9YvVKDqXP2EczdR-23" style="edgeStyle=orthogonalEdgeStyle;rounded=0;orthogonalLoop=1;jettySize=auto;html=1;exitX=0.25;exitY=1;exitDx=0;exitDy=0;entryX=0;entryY=0.5;entryDx=0;entryDy=0;" edge="1" parent="1" source="wPhsgIW06foIdjOwm0GP-23" target="MV5Gk9YvVKDqXP2EczdR-17">
            <mxGeometry relative="1" as="geometry" />
          </mxCell>
          <mxCell id="MV5Gk9YvVKDqXP2EczdR-24" style="edgeStyle=orthogonalEdgeStyle;rounded=0;orthogonalLoop=1;jettySize=auto;html=1;exitX=0.25;exitY=1;exitDx=0;exitDy=0;entryX=0;entryY=0.5;entryDx=0;entryDy=0;" edge="1" parent="1" source="wPhsgIW06foIdjOwm0GP-23" target="MV5Gk9YvVKDqXP2EczdR-18">
            <mxGeometry relative="1" as="geometry" />
          </mxCell>
          <mxCell id="MV5Gk9YvVKDqXP2EczdR-25" style="edgeStyle=orthogonalEdgeStyle;rounded=0;orthogonalLoop=1;jettySize=auto;html=1;exitX=0.25;exitY=1;exitDx=0;exitDy=0;entryX=0;entryY=0.5;entryDx=0;entryDy=0;" edge="1" parent="1" source="wPhsgIW06foIdjOwm0GP-23" target="MV5Gk9YvVKDqXP2EczdR-19">
            <mxGeometry relative="1" as="geometry" />
          </mxCell>
          <mxCell id="wPhsgIW06foIdjOwm0GP-23" value="Примитивы" style="rounded=1;arcSize=10;whiteSpace=wrap;html=1;align=center;" parent="1" vertex="1">
            <mxGeometry x="864" y="566" width="100" height="40" as="geometry" />
          </mxCell>
          <mxCell id="MV5Gk9YvVKDqXP2EczdR-43" style="edgeStyle=orthogonalEdgeStyle;rounded=0;orthogonalLoop=1;jettySize=auto;html=1;" edge="1" parent="1" source="wPhsgIW06foIdjOwm0GP-54">
            <mxGeometry relative="1" as="geometry">
              <mxPoint x="924" y="606" as="targetPoint" />
              <Array as="points">
                <mxPoint x="1137" y="636" />
                <mxPoint x="924" y="636" />
                <mxPoint x="924" y="606" />
              </Array>
            </mxGeometry>
          </mxCell>
          <mxCell id="wPhsgIW06foIdjOwm0GP-54" value="Возможности" style="swimlane;childLayout=stackLayout;horizontal=1;startSize=50;horizontalStack=0;rounded=1;fontSize=14;fontStyle=0;strokeWidth=2;resizeParent=0;resizeLast=1;shadow=0;dashed=0;align=center;arcSize=4;whiteSpace=wrap;html=1;" parent="1" vertex="1">
            <mxGeometry x="1064" y="645" width="145" height="110" as="geometry" />
          </mxCell>
          <mxCell id="wPhsgIW06foIdjOwm0GP-55" value="Стилизация примитивов&lt;br&gt;(менять цвет заливки &lt;br&gt;и цвет контура)&lt;br&gt;" style="align=left;strokeColor=none;fillColor=none;spacingLeft=4;fontSize=12;verticalAlign=top;resizable=0;rotatable=0;part=1;html=1;" parent="wPhsgIW06foIdjOwm0GP-54" vertex="1">
            <mxGeometry y="50" width="145" height="60" as="geometry" />
          </mxCell>
          <mxCell id="MV5Gk9YvVKDqXP2EczdR-5" style="edgeStyle=orthogonalEdgeStyle;rounded=0;orthogonalLoop=1;jettySize=auto;html=1;exitX=0.5;exitY=1;exitDx=0;exitDy=0;entryX=0.5;entryY=0;entryDx=0;entryDy=0;" edge="1" parent="1" source="MV5Gk9YvVKDqXP2EczdR-4" target="wPhsgIW06foIdjOwm0GP-5">
            <mxGeometry relative="1" as="geometry" />
          </mxCell>
          <mxCell id="MV5Gk9YvVKDqXP2EczdR-7" style="edgeStyle=orthogonalEdgeStyle;rounded=0;orthogonalLoop=1;jettySize=auto;html=1;exitX=0.5;exitY=1;exitDx=0;exitDy=0;entryX=0.5;entryY=0;entryDx=0;entryDy=0;" edge="1" parent="1" source="MV5Gk9YvVKDqXP2EczdR-4" target="MV5Gk9YvVKDqXP2EczdR-6">
            <mxGeometry relative="1" as="geometry" />
          </mxCell>
          <mxCell id="MV5Gk9YvVKDqXP2EczdR-80" style="edgeStyle=orthogonalEdgeStyle;rounded=0;orthogonalLoop=1;jettySize=auto;html=1;exitX=0.5;exitY=1;exitDx=0;exitDy=0;" edge="1" parent="1" source="MV5Gk9YvVKDqXP2EczdR-4" target="MV5Gk9YvVKDqXP2EczdR-45">
            <mxGeometry relative="1" as="geometry" />
          </mxCell>
          <mxCell id="MV5Gk9YvVKDqXP2EczdR-4" value="Редактор" style="whiteSpace=wrap;html=1;align=center;" vertex="1" parent="1">
            <mxGeometry x="654" y="116" width="100" height="40" as="geometry" />
          </mxCell>
          <mxCell id="MV5Gk9YvVKDqXP2EczdR-14" style="edgeStyle=orthogonalEdgeStyle;rounded=0;orthogonalLoop=1;jettySize=auto;html=1;exitX=0.5;exitY=1;exitDx=0;exitDy=0;entryX=0.5;entryY=0;entryDx=0;entryDy=0;" edge="1" parent="1" source="MV5Gk9YvVKDqXP2EczdR-6" target="MV5Gk9YvVKDqXP2EczdR-12">
            <mxGeometry relative="1" as="geometry" />
          </mxCell>
          <mxCell id="MV5Gk9YvVKDqXP2EczdR-6" value="История" style="rounded=1;arcSize=10;whiteSpace=wrap;html=1;align=center;" vertex="1" parent="1">
            <mxGeometry x="534" y="204" width="100" height="40" as="geometry" />
          </mxCell>
          <mxCell id="MV5Gk9YvVKDqXP2EczdR-70" style="edgeStyle=orthogonalEdgeStyle;rounded=0;orthogonalLoop=1;jettySize=auto;html=1;exitX=0.5;exitY=1;exitDx=0;exitDy=0;" edge="1" parent="1" source="MV5Gk9YvVKDqXP2EczdR-12" target="MV5Gk9YvVKDqXP2EczdR-62">
            <mxGeometry relative="1" as="geometry" />
          </mxCell>
          <mxCell id="MV5Gk9YvVKDqXP2EczdR-71" style="edgeStyle=orthogonalEdgeStyle;rounded=0;orthogonalLoop=1;jettySize=auto;html=1;exitX=0.5;exitY=1;exitDx=0;exitDy=0;entryX=1;entryY=0.5;entryDx=0;entryDy=0;" edge="1" parent="1" source="MV5Gk9YvVKDqXP2EczdR-12" target="MV5Gk9YvVKDqXP2EczdR-60">
            <mxGeometry relative="1" as="geometry" />
          </mxCell>
          <mxCell id="MV5Gk9YvVKDqXP2EczdR-72" style="edgeStyle=orthogonalEdgeStyle;rounded=0;orthogonalLoop=1;jettySize=auto;html=1;exitX=0.5;exitY=1;exitDx=0;exitDy=0;entryX=1;entryY=0.5;entryDx=0;entryDy=0;" edge="1" parent="1" source="MV5Gk9YvVKDqXP2EczdR-12" target="MV5Gk9YvVKDqXP2EczdR-61">
            <mxGeometry relative="1" as="geometry" />
          </mxCell>
          <mxCell id="MV5Gk9YvVKDqXP2EczdR-75" style="edgeStyle=orthogonalEdgeStyle;rounded=0;orthogonalLoop=1;jettySize=auto;html=1;exitX=0.5;exitY=1;exitDx=0;exitDy=0;entryX=1;entryY=0.5;entryDx=0;entryDy=0;" edge="1" parent="1" source="MV5Gk9YvVKDqXP2EczdR-12" target="MV5Gk9YvVKDqXP2EczdR-74">
            <mxGeometry relative="1" as="geometry" />
          </mxCell>
          <mxCell id="MV5Gk9YvVKDqXP2EczdR-12" value="Действие" style="rounded=1;arcSize=10;whiteSpace=wrap;html=1;align=center;" vertex="1" parent="1">
            <mxGeometry x="350" y="204" width="100" height="40" as="geometry" />
          </mxCell>
          <mxCell id="MV5Gk9YvVKDqXP2EczdR-17" value="Квадрат" style="rounded=1;arcSize=10;whiteSpace=wrap;html=1;align=center;" vertex="1" parent="1">
            <mxGeometry x="923" y="645" width="100" height="40" as="geometry" />
          </mxCell>
          <mxCell id="MV5Gk9YvVKDqXP2EczdR-18" value="Круг" style="rounded=1;arcSize=10;whiteSpace=wrap;html=1;align=center;" vertex="1" parent="1">
            <mxGeometry x="923" y="690" width="100" height="40" as="geometry" />
          </mxCell>
          <mxCell id="MV5Gk9YvVKDqXP2EczdR-19" value="Треугольник" style="rounded=1;arcSize=10;whiteSpace=wrap;html=1;align=center;" vertex="1" parent="1">
            <mxGeometry x="923" y="735" width="100" height="40" as="geometry" />
          </mxCell>
          <mxCell id="MV5Gk9YvVKDqXP2EczdR-27" value="Шрифт" style="rounded=1;arcSize=10;whiteSpace=wrap;html=1;align=center;" vertex="1" parent="1">
            <mxGeometry x="553" y="616" width="100" height="40" as="geometry" />
          </mxCell>
          <mxCell id="MV5Gk9YvVKDqXP2EczdR-28" value="Размера шрифта" style="rounded=1;arcSize=10;whiteSpace=wrap;html=1;align=center;" vertex="1" parent="1">
            <mxGeometry x="553" y="666" width="100" height="40" as="geometry" />
          </mxCell>
          <mxCell id="MV5Gk9YvVKDqXP2EczdR-29" value="Цвет шрифта" style="rounded=1;arcSize=10;whiteSpace=wrap;html=1;align=center;" vertex="1" parent="1">
            <mxGeometry x="553" y="716" width="100" height="40" as="geometry" />
          </mxCell>
          <mxCell id="MV5Gk9YvVKDqXP2EczdR-30" value="Курсив" style="rounded=1;arcSize=10;whiteSpace=wrap;html=1;align=center;" vertex="1" parent="1">
            <mxGeometry x="553" y="766" width="100" height="40" as="geometry" />
          </mxCell>
          <mxCell id="MV5Gk9YvVKDqXP2EczdR-36" value="Жирность" style="rounded=1;arcSize=10;whiteSpace=wrap;html=1;align=center;" vertex="1" parent="1">
            <mxGeometry x="553" y="816" width="100" height="40" as="geometry" />
          </mxCell>
          <mxCell id="MV5Gk9YvVKDqXP2EczdR-38" value="Путь" style="rounded=1;arcSize=10;whiteSpace=wrap;html=1;align=center;" vertex="1" parent="1">
            <mxGeometry x="774" y="616" width="100" height="40" as="geometry" />
          </mxCell>
          <mxCell id="MV5Gk9YvVKDqXP2EczdR-39" value="Прозрачность" style="rounded=1;arcSize=10;whiteSpace=wrap;html=1;align=center;" vertex="1" parent="1">
            <mxGeometry x="774" y="666" width="100" height="40" as="geometry" />
          </mxCell>
          <mxCell id="MV5Gk9YvVKDqXP2EczdR-82" style="edgeStyle=orthogonalEdgeStyle;rounded=0;orthogonalLoop=1;jettySize=auto;html=1;exitX=0.5;exitY=1;exitDx=0;exitDy=0;entryX=0.5;entryY=0;entryDx=0;entryDy=0;" edge="1" parent="1" source="MV5Gk9YvVKDqXP2EczdR-45" target="MV5Gk9YvVKDqXP2EczdR-55">
            <mxGeometry relative="1" as="geometry">
              <Array as="points">
                <mxPoint x="654" y="332" />
                <mxPoint x="466" y="332" />
              </Array>
            </mxGeometry>
          </mxCell>
          <mxCell id="MV5Gk9YvVKDqXP2EczdR-45" value="Выделенение" style="rounded=1;arcSize=10;whiteSpace=wrap;html=1;align=center;" vertex="1" parent="1">
            <mxGeometry x="604" y="278" width="100" height="40" as="geometry" />
          </mxCell>
          <mxCell id="MV5Gk9YvVKDqXP2EczdR-47" value="Записывает любое изм." style="ellipse;whiteSpace=wrap;html=1;align=center;dashed=1;" vertex="1" parent="1">
            <mxGeometry x="105" y="347" width="100" height="40" as="geometry" />
          </mxCell>
          <mxCell id="MV5Gk9YvVKDqXP2EczdR-106" style="edgeStyle=orthogonalEdgeStyle;rounded=0;orthogonalLoop=1;jettySize=auto;html=1;exitX=0.5;exitY=1;exitDx=0;exitDy=0;entryX=0.5;entryY=0;entryDx=0;entryDy=0;" edge="1" parent="1" source="MV5Gk9YvVKDqXP2EczdR-55" target="MV5Gk9YvVKDqXP2EczdR-56">
            <mxGeometry relative="1" as="geometry" />
          </mxCell>
          <mxCell id="MV5Gk9YvVKDqXP2EczdR-55" value="Слайда/ов" style="rounded=1;arcSize=10;whiteSpace=wrap;html=1;align=center;" vertex="1" parent="1">
            <mxGeometry x="416" y="352" width="100" height="40" as="geometry" />
          </mxCell>
          <mxCell id="MV5Gk9YvVKDqXP2EczdR-56" value="Объекта/ов" style="rounded=1;arcSize=10;whiteSpace=wrap;html=1;align=center;" vertex="1" parent="1">
            <mxGeometry x="416" y="410" width="100" height="40" as="geometry" />
          </mxCell>
          <mxCell id="MV5Gk9YvVKDqXP2EczdR-60" value="Номер" style="whiteSpace=wrap;html=1;align=center;" vertex="1" parent="1">
            <mxGeometry x="220" y="338" width="100" height="40" as="geometry" />
          </mxCell>
          <mxCell id="MV5Gk9YvVKDqXP2EczdR-61" value="Объект" style="whiteSpace=wrap;html=1;align=center;" vertex="1" parent="1">
            <mxGeometry x="220" y="394" width="100" height="40" as="geometry" />
          </mxCell>
          <mxCell id="MV5Gk9YvVKDqXP2EczdR-62" value="Тип" style="whiteSpace=wrap;html=1;align=center;" vertex="1" parent="1">
            <mxGeometry x="222" y="285" width="100" height="40" as="geometry" />
          </mxCell>
          <mxCell id="MV5Gk9YvVKDqXP2EczdR-74" value="Начальное и конченое состояния" style="whiteSpace=wrap;html=1;align=center;" vertex="1" parent="1">
            <mxGeometry x="220" y="450" width="100" height="40" as="geometry" />
          </mxCell>
          <mxCell id="MV5Gk9YvVKDqXP2EczdR-76" value="Цвет/картинка" style="whiteSpace=wrap;html=1;align=center;" vertex="1" parent="1">
            <mxGeometry x="897" y="358" width="100" height="40" as="geometry" />
          </mxCell>
          <mxCell id="MV5Gk9YvVKDqXP2EczdR-77" value="Картинка" style="whiteSpace=wrap;html=1;align=center;" vertex="1" parent="1">
            <mxGeometry x="1015" y="358" width="100" height="40" as="geometry" />
          </mxCell>
          <mxCell id="MV5Gk9YvVKDqXP2EczdR-90" style="edgeStyle=orthogonalEdgeStyle;rounded=0;orthogonalLoop=1;jettySize=auto;html=1;entryX=1;entryY=0.5;entryDx=0;entryDy=0;" edge="1" parent="1" source="MV5Gk9YvVKDqXP2EczdR-83" target="wPhsgIW06foIdjOwm0GP-17">
            <mxGeometry relative="1" as="geometry" />
          </mxCell>
          <mxCell id="MV5Gk9YvVKDqXP2EczdR-83" value="Размер границы" style="rounded=1;arcSize=10;whiteSpace=wrap;html=1;align=center;" vertex="1" parent="1">
            <mxGeometry x="927" y="410" width="100" height="40" as="geometry" />
          </mxCell>
          <mxCell id="MV5Gk9YvVKDqXP2EczdR-89" style="edgeStyle=orthogonalEdgeStyle;rounded=0;orthogonalLoop=1;jettySize=auto;html=1;exitX=1;exitY=0.5;exitDx=0;exitDy=0;entryX=0;entryY=0.5;entryDx=0;entryDy=0;" edge="1" parent="1" source="MV5Gk9YvVKDqXP2EczdR-85" target="wPhsgIW06foIdjOwm0GP-17">
            <mxGeometry relative="1" as="geometry" />
          </mxCell>
          <mxCell id="MV5Gk9YvVKDqXP2EczdR-85" value="Цвет границы" style="rounded=1;arcSize=10;whiteSpace=wrap;html=1;align=center;" vertex="1" parent="1">
            <mxGeometry x="557" y="414" width="100" height="40" as="geometry" />
          </mxCell>
          <mxCell id="MV5Gk9YvVKDqXP2EczdR-91" style="edgeStyle=orthogonalEdgeStyle;rounded=0;orthogonalLoop=1;jettySize=auto;html=1;entryX=1;entryY=0.5;entryDx=0;entryDy=0;" edge="1" parent="1" source="MV5Gk9YvVKDqXP2EczdR-87" target="wPhsgIW06foIdjOwm0GP-17">
            <mxGeometry relative="1" as="geometry" />
          </mxCell>
          <mxCell id="MV5Gk9YvVKDqXP2EczdR-87" value="Положение" style="rounded=1;arcSize=10;whiteSpace=wrap;html=1;align=center;" vertex="1" parent="1">
            <mxGeometry x="927" y="465" width="100" height="40" as="geometry" />
          </mxCell>
          <mxCell id="MV5Gk9YvVKDqXP2EczdR-93" style="edgeStyle=orthogonalEdgeStyle;rounded=0;orthogonalLoop=1;jettySize=auto;html=1;entryX=0;entryY=0.5;entryDx=0;entryDy=0;" edge="1" parent="1" source="MV5Gk9YvVKDqXP2EczdR-92" target="wPhsgIW06foIdjOwm0GP-17">
            <mxGeometry relative="1" as="geometry" />
          </mxCell>
          <mxCell id="MV5Gk9YvVKDqXP2EczdR-92" value="Размер" style="rounded=1;arcSize=10;whiteSpace=wrap;html=1;align=center;" vertex="1" parent="1">
            <mxGeometry x="557" y="467" width="100" height="40" as="geometry" />
          </mxCell>
          <mxCell id="MV5Gk9YvVKDqXP2EczdR-97" style="edgeStyle=orthogonalEdgeStyle;rounded=0;orthogonalLoop=1;jettySize=auto;html=1;entryX=0;entryY=0.5;entryDx=0;entryDy=0;" edge="1" parent="1" source="MV5Gk9YvVKDqXP2EczdR-96" target="wPhsgIW06foIdjOwm0GP-19">
            <mxGeometry relative="1" as="geometry" />
          </mxCell>
          <mxCell id="MV5Gk9YvVKDqXP2EczdR-96" value="Заливка" style="rounded=1;arcSize=10;whiteSpace=wrap;html=1;align=center;" vertex="1" parent="1">
            <mxGeometry x="499" y="566" width="100" height="40" as="geometry" />
          </mxCell>
          <mxCell id="MV5Gk9YvVKDqXP2EczdR-100" style="edgeStyle=orthogonalEdgeStyle;rounded=0;orthogonalLoop=1;jettySize=auto;html=1;exitX=0;exitY=0.5;exitDx=0;exitDy=0;entryX=1;entryY=0.5;entryDx=0;entryDy=0;" edge="1" parent="1" source="MV5Gk9YvVKDqXP2EczdR-98" target="wPhsgIW06foIdjOwm0GP-23">
            <mxGeometry relative="1" as="geometry" />
          </mxCell>
          <mxCell id="MV5Gk9YvVKDqXP2EczdR-98" value="Заливка" style="rounded=1;arcSize=10;whiteSpace=wrap;html=1;align=center;" vertex="1" parent="1">
            <mxGeometry x="982" y="566" width="100" height="40" as="geometry" />
          </mxCell>
          <mxCell id="MV5Gk9YvVKDqXP2EczdR-104" value="Название" style="whiteSpace=wrap;html=1;align=center;" vertex="1" parent="1">
            <mxGeometry x="897" y="245" width="100" height="40" as="geometry" />
          </mxCell>
        </root>
      </mxGraphModel>
    </diagram>
  </mxfile>
